<svg width="32" height="32" version="1.1" viewBox="0 0 8.467 8.467" xmlns="http://www.w3.org/2000/svg" xmlns:xlink="http://www.w3.org/1999/xlink">
  <defs>
    <linearGradient id="e" x1=".529" x2="7.937" y1="292.5" y2="292.5" gradientUnits="userSpaceOnUse">
      <stop offset="0"/>
      <stop stop-opacity="0" offset="1"/>
    </linearGradient>
    <linearGradient id="f" x1="1.852" x2="6.35" y1="289.7" y2="295.3" gradientUnits="userSpaceOnUse">
      <stop stop-color="#4d46e2" offset="0"/>
      <stop stop-color="#2a22d6" offset="1"/>
    </linearGradient>
    <linearGradient id="g" x1="2.285" x2="3.427" y1="302.1" y2="307.6" gradientUnits="userSpaceOnUse">
      <stop stop-color="#4c45e2" offset="0"/>
      <stop stop-color="#342cd9" offset="1"/>
    </linearGradient>
    <linearGradient id="h" x1="5.424" x2="6.35" y1="289.7" y2="295.3" gradientUnits="userSpaceOnUse">
      <stop stop-color="#3e36dd" offset="0"/>
      <stop stop-color="#2a22d6" offset="1"/>
    </linearGradient>
  </defs>
  <g transform="translate(0 -288.5)">
    <g fill="url(#e)">
      <g>
        <path transform="matrix(1.042 0 0 .9596 -.53 0)" d="m3.563 307.04-.009.825h-.199c-.532 0-.89-.08-1.072-.238-.18-.158-.27-.474-.27-.946v-.768c0-.323-.116-.415-.232-.54-.115-.123-.263-.272-.575-.268l-.19.002v-.69h.187c.306 0 .46-.015.574-.137.116-.124.237-.211.237-.53v-.77c0-.473.091-.888.27-1.044.183-.158.54-.129 1.018-.135l.252-.003v.828l-.252-.003c-.301-.003-.354-.023-.446.071-.063.07-.063.093-.063.395v.686c0 .336-.156.629-.254.78-.096.152-.273.223-.508.276.238.058.412.124.508.276.096.152.268.417.266.822l-.003.564c-.001.302-.038.381.054.475.092.094.197.073.486.072z" fill="url(#g)"/>
        <path d="m5.292 294.62.008.792h.207c.554 0 .925-.076 1.114-.227.186-.152.28-.455.28-.909v-.736c0-.31.12-.399.24-.518s.275-.261.599-.257l.197.002v-.662h-.194c-.318-.001-.479-.015-.597-.132-.12-.12-.245-.203-.245-.509v-.739c0-.454-.095-.851-.282-1.001-.189-.152-.56-.124-1.057-.13l-.262-.002v.793l.262-.003c.313-.003.368-.021.464.07.066.065.066.088.066.378v.658c0 .323.161.603.263.749.1.146.283.213.528.264-.247.056-.428.12-.528.265-.1.146-.279.4-.277.789l.003.541c.002.29.04.366-.055.456-.096.09-.205.07-.505.068z" fill="url(#h)"/>
      </g>
    </g>
    <path d="m2.778 290.8h2.91v0.265h-2.91zm0 1.059h2.91v0.265h-2.91zm0 1.058h2.91v0.265h-2.91zm0 1.058h2.91v0.265h-2.91z" fill="none" stroke="#606260" stroke-width=".2646"/>
  </g>
</svg>
